<?xml version="1.0" encoding="utf-8"?>
<!-- Generator: Adobe Illustrator 25.2.1, SVG Export Plug-In . SVG Version: 6.00 Build 0)  -->
<svg version="1.1" id="Layer_1" xmlns="http://www.w3.org/2000/svg" xmlns:xlink="http://www.w3.org/1999/xlink" x="0px" y="0px"
	 viewBox="0 0 195.1 164.5" style="enable-background:new 0 0 195.1 164.5;" xml:space="preserve">
<style type="text/css">
	.st0{clip-path:url(#SVGID_2_);}
	.st1{clip-path:url(#SVGID_4_);fill:#231F20;}
	.st2{clip-path:url(#SVGID_6_);}
	.st3{clip-path:url(#SVGID_8_);fill:#231F20;}
	.st4{clip-path:url(#SVGID_10_);}
	.st5{clip-path:url(#SVGID_12_);fill:#231F20;}
</style>
<g id="Business_Card_-_Back_4">
</g>
<g id="Business_Card_-_Back_3">
</g>
<g id="Business_Card_-_Back_2">
</g>
<g id="Business_Card_-_Back_1">
</g>
<g id="Business_Card_-_Front_4">
</g>
<g id="Business_Card_-_Front_3">
</g>
<g id="Business_Card_-_Front_2">
</g>
<g id="Business_Card_-_Front_1">
</g>
<g id="INSTRUCTIONS">
	<g>
		<g>
			<g>
				<defs>
					<path id="SVGID_1_" d="M39,17.1l16.8,37H22.1L39,17.1z M38.4,1.6L1.9,81h7.9L19,60.7h39.8L68,81h8L39.6,1.6H38.4z"/>
				</defs>
				<use xlink:href="#SVGID_1_"  style="overflow:visible;fill:#231F20;"/>
				<clipPath id="SVGID_2_">
					<use xlink:href="#SVGID_1_"  style="overflow:visible;"/>
				</clipPath>
				<g class="st0">
					<g>
						<defs>
							<rect id="SVGID_3_" x="-431.3" y="-29.7" width="3293.1" height="6639.2"/>
						</defs>
						<use xlink:href="#SVGID_3_"  style="overflow:visible;fill:#231F20;"/>
						<clipPath id="SVGID_4_">
							<use xlink:href="#SVGID_3_"  style="overflow:visible;"/>
						</clipPath>
						<rect x="-7.9" y="-8.2" class="st1" width="93.6" height="98.9"/>
					</g>
				</g>
			</g>
		</g>
		<g>
			<g>
				<defs>
					<polygon id="SVGID_5_" points="141.1,85 141.1,162.9 193.2,162.9 193.2,156.2 148.4,156.2 148.4,126.9 191.2,126.9 191.2,120 
						148.4,120 148.4,91.7 192.4,91.7 192.4,85 					"/>
				</defs>
				<use xlink:href="#SVGID_5_"  style="overflow:visible;fill:#231F20;"/>
				<clipPath id="SVGID_6_">
					<use xlink:href="#SVGID_5_"  style="overflow:visible;"/>
				</clipPath>
				<g class="st2">
					<g>
						<defs>
							<rect id="SVGID_7_" x="-431.3" y="-29.7" width="3293.1" height="6639.2"/>
						</defs>
						<use xlink:href="#SVGID_7_"  style="overflow:visible;fill:#231F20;"/>
						<clipPath id="SVGID_8_">
							<use xlink:href="#SVGID_7_"  style="overflow:visible;"/>
						</clipPath>
						<rect x="131.3" y="75.2" class="st3" width="71.7" height="97.5"/>
					</g>
				</g>
			</g>
		</g>
		<g>
			<g>
				<defs>
					<path id="SVGID_9_" d="M131,86.5v-1.1h-7.3v1.3c0,8.4-1.5,15.6-4.5,21.2L95.2,79c-5.5-6.6-6.6-11.4-6.6-15.2
						c0-6.8,4.8-11.1,13.2-11.1c7.9,0,12.8,4.6,12.8,12.3h7.7c0-11.7-7.8-19.5-19.5-19.5C90.4,45.5,81,53,81,64.3
						c0,5.3,0.8,9.2,6.9,16.8c-9.7,6.3-18.6,13.2-18.6,25.1c0,12.1,10.7,21.8,27.2,21.8c9.6,0,17.5-3.2,23.3-9l6.7,8h8.8l-11.2-13.4
						C128.6,106.5,131,97.3,131,86.5 M97.3,120.8c-13.2,0-20.3-6-20.3-14.8c0-8,4-12.7,15.2-19.8l23,27.4
						C110.8,118.2,104.8,120.8,97.3,120.8"/>
				</defs>
				<use xlink:href="#SVGID_9_"  style="overflow:visible;fill:#231F20;"/>
				<clipPath id="SVGID_10_">
					<use xlink:href="#SVGID_9_"  style="overflow:visible;"/>
				</clipPath>
				<g class="st4">
					<g>
						<defs>
							<rect id="SVGID_11_" x="-431.3" y="-29.7" width="3293.1" height="6639.2"/>
						</defs>
						<use xlink:href="#SVGID_11_"  style="overflow:visible;fill:#231F20;"/>
						<clipPath id="SVGID_12_">
							<use xlink:href="#SVGID_11_"  style="overflow:visible;"/>
						</clipPath>
						<rect x="59.5" y="35.7" class="st5" width="85.6" height="102"/>
					</g>
				</g>
			</g>
		</g>
	</g>
</g>
</svg>
