<svg width="27" height="23" viewBox="0 0 27 23" fill="none" xmlns="http://www.w3.org/2000/svg">
<path d="M25.7887 18.4599L16.0556 1.59452C15.7103 0.991775 15.163 0.530434 14.5105 0.292054C13.8579 0.0536905 13.1421 0.0536905 12.4895 0.292054C11.837 0.530417 11.2897 0.991751 10.9443 1.59452L1.21122 18.4599C0.688328 19.373 0.6906 20.4952 1.21698 21.4063C1.74345 22.3173 2.71466 22.8796 3.76681 22.8825H23.2331C24.2852 22.8796 25.2565 22.3173 25.7829 21.4063C26.3093 20.4953 26.3115 19.373 25.7886 18.4599H25.7887ZM24.2209 20.499C24.1229 20.6743 23.9795 20.82 23.8056 20.9204C23.6318 21.021 23.4339 21.0726 23.2331 21.07H3.76685C3.56606 21.0726 3.36819 21.021 3.19439 20.9204C3.0205 20.82 2.87701 20.6743 2.77901 20.499C2.67687 20.3278 2.62287 20.1321 2.62287 19.9326C2.62287 19.7331 2.67687 19.5374 2.77901 19.3662L12.5211 2.50074C12.6521 2.26842 12.8616 2.0903 13.1119 1.99815C13.3624 1.90611 13.6373 1.90611 13.8877 1.99815C14.1381 2.09028 14.3475 2.26843 14.4786 2.50074L24.2206 19.3662C24.3228 19.5374 24.3768 19.7331 24.3768 19.9326C24.3768 20.1321 24.3228 20.3278 24.2206 20.499H24.2209ZM12.5939 14.5448V6.88689C12.5939 6.56311 12.7666 6.26395 13.047 6.10203C13.3274 5.94014 13.6729 5.94014 13.9532 6.10203C14.2336 6.26393 14.4064 6.56309 14.4064 6.88689V14.5448C14.4064 14.8686 14.2336 15.1678 13.9532 15.3297C13.6729 15.4916 13.3274 15.4916 13.047 15.3297C12.7666 15.1678 12.5939 14.8686 12.5939 14.5448ZM14.8867 17.898C14.8867 18.2656 14.7406 18.6183 14.4806 18.8784C14.2205 19.1385 13.8678 19.2845 13.5001 19.2845C13.1324 19.2845 12.7797 19.1385 12.5197 18.8784C12.2596 18.6183 12.1136 18.2656 12.1136 17.898C12.1136 17.5303 12.2596 17.1776 12.5197 16.9175C12.7798 16.6574 13.1324 16.5114 13.5001 16.5114C13.8672 16.5138 14.2184 16.6606 14.4779 16.9201C14.7374 17.1796 14.8843 17.5309 14.8867 17.898Z" fill="#232222"/>
</svg>
