<?xml version="1.0" encoding="UTF-8" standalone="no"?>
<svg width="300px" height="152px" viewBox="0 0 300 152" version="1.1" xmlns="http://www.w3.org/2000/svg" xmlns:xlink="http://www.w3.org/1999/xlink" xmlns:sketch="http://www.bohemiancoding.com/sketch/ns">
    <!-- Generator: Sketch 3.5.2 (25235) - http://www.bohemiancoding.com/sketch -->
    <title>Page 1 Copy 4</title>
    <desc>Created with Sketch.</desc>
    <defs>
        <path id="path-1" d="M0,0.148897059 L299.956154,0.148897059 L299.956154,151.187783 L0,151.187783"></path>
        <path id="path-3" d="M0,0.148897059 L299.956154,0.148897059 L299.956154,151.187783 L0,151.187783 L0,0.148897059 Z"></path>
    </defs>
    <g id="Style-Guide" stroke="none" stroke-width="1" fill="none" fill-rule="evenodd" sketch:type="MSPage">
        <g id="Desktop-HD-Copy-2" sketch:type="MSArtboardGroup" transform="translate(-866.000000, -68.000000)">
            <g id="Page-1-Copy-4" sketch:type="MSLayerGroup" transform="translate(866.000000, 68.330769)">
                <path d="M167.543308,0.149126131 L167.543308,17.5861171 L149.977154,0.149126131 L107.070231,42.7428479 L118.361769,53.9490696 L149.977154,22.566151 L181.594846,53.9490696 L192.886385,42.7428479 L183.510231,33.4356363 L183.510231,0.149126131 L167.543308,0.149126131 Z" id="Fill-1" fill="#DD1829" sketch:type="MSShapeGroup"></path>
                <path d="M118.363385,98.7844938 L149.978769,67.3992845 L181.594154,98.7844938 L215.466462,65.1589564 L204.177231,53.950444 L181.594154,76.3674689 L149.978769,44.9845503 L118.361077,76.3674689 L95.778,53.950444 L84.4887692,65.1589564 L118.361077,98.7844938 L118.363385,98.7844938 Z" id="Fill-2" fill="#DD1829" sketch:type="MSShapeGroup"></path>
                <path d="M16.956,125.528467 L11.256,142.683699 L5.99215385,125.59948 L-0.000923076925,125.59948 L8.67830769,151.00819 L13.5429231,151.00819 L19.2798462,134.503524 L25.0167692,151.00819 L29.8813846,151.00819 L38.5583077,125.59948 L32.7106154,125.59948 L27.4467692,142.683699 L21.7490769,125.528467 L16.956,125.528467 Z" id="Fill-3" fill="#DD1829" sketch:type="MSShapeGroup"></path>
                <path d="M44.8781538,125.598563 L44.8781538,150.828597 L64.2281538,150.828597 L64.2281538,145.892087 L50.4327692,145.892087 L50.4327692,140.593643 L62.4143077,140.593643 L62.4143077,135.654842 L50.4327692,135.654842 L50.4327692,130.539655 L64.0458462,130.539655 L64.0458462,125.598563 L44.8781538,125.598563 Z" id="Fill-4" fill="#DD1829" sketch:type="MSShapeGroup"></path>
                <g id="Group-19" transform="translate(0.000000, 0.000000)">
                    <g id="Group-7">
                        <mask id="mask-2" sketch:name="Clip 6" fill="white">
                            <use xlink:href="#path-1"></use>
                        </mask>
                        <g id="Clip-6"></g>
                        <path d="M80.5324615,146.28655 C77.6293846,146.28655 75.2316923,145.097664 72.9424615,143.223852 L69.6401538,147.152443 C72.6909231,149.855498 76.5770769,151.188699 80.424,151.188699 C85.9070769,151.188699 89.754,148.377981 89.754,143.368167 L89.754,143.297155 C89.754,138.898965 86.8509231,137.059514 81.6932308,135.728603 C77.3016923,134.61073 76.2124615,134.070119 76.2124615,132.411635 L76.2124615,132.338331 C76.2124615,131.115085 77.3386154,130.143818 79.4801538,130.143818 C81.6216923,130.143818 83.8370769,131.078433 86.0870769,132.626963 L88.9924615,128.446391 C86.4147692,126.391612 83.2555385,125.241669 79.5516923,125.241669 C74.3593846,125.241669 70.6578462,128.267715 70.6578462,132.842291 L70.6578462,132.917885 C70.6578462,137.923117 73.9601538,139.331912 79.0786154,140.628462 C83.3293846,141.709683 84.1993846,142.431261 84.1993846,143.835475 L84.1993846,143.908778 C84.1993846,145.386295 82.8216923,146.28655 80.5324615,146.28655" id="Fill-5" fill="#DD1829" sketch:type="MSShapeGroup" mask="url(#mask-2)"></path>
                    </g>
                    <path d="M107.766462,150.828368 L107.766462,130.718102 L115.499538,130.718102 L115.499538,125.598334 L94.4418462,125.598334 L94.4418462,130.718102 L102.177231,130.718102 L102.177231,150.828368 L107.766462,150.828368 Z" id="Fill-8" fill="#DD1829" sketch:type="MSShapeGroup"></path>
                    <path d="M147.381462,150.828368 L147.381462,125.598334 L141.353769,125.598334 L134.670692,136.268527 L127.992231,125.598334 L121.964538,125.598334 L121.964538,150.828368 L127.447615,150.828368 L127.447615,134.465727 L134.525308,145.131338 L134.670692,145.131338 L141.824538,134.360354 L141.824538,150.828368 L147.381462,150.828368 Z" id="Fill-10" fill="#DD1829" sketch:type="MSShapeGroup"></path>
                    <mask id="mask-4" sketch:name="Clip 13" fill="white">
                        <use xlink:href="#path-3"></use>
                    </mask>
                    <g id="Clip-13"></g>
                    <path d="M161.503846,125.598105 L155.916923,125.598105 L155.916923,150.828139 L161.503846,150.828139 L161.503846,125.598105 Z" id="Fill-12" fill="#DD1829" sketch:type="MSShapeGroup" mask="url(#mask-4)"></path>
                    <path d="M175.193538,125.599251 L170.038154,125.599251 L170.038154,150.829285 L175.555846,150.829285 L175.555846,134.789635 L187.865077,150.829285 L192.621231,150.829285 L192.621231,125.599251 L187.101231,125.599251 L187.101231,141.137231 L175.193538,125.599251 Z" id="Fill-14" fill="#DD1829" sketch:type="MSShapeGroup" mask="url(#mask-4)"></path>
                    <path d="M219.270923,143.367251 L219.270923,143.296239 C219.270923,138.898049 216.367846,137.060888 211.212462,135.727687 C206.818615,134.612104 205.727077,134.069202 205.727077,132.413009 L205.727077,132.339706 C205.727077,131.114169 206.853231,130.145192 208.997077,130.145192 C211.138615,130.145192 213.351692,131.079808 215.606308,132.628337 L218.509385,128.447766 C215.931692,126.390696 212.774769,125.240752 209.068615,125.240752 C203.878615,125.240752 200.172462,128.269089 200.172462,132.841374 L200.172462,132.916968 C200.172462,137.924491 203.479385,139.333286 208.597846,140.627545 C212.844,141.708767 213.716308,142.430345 213.716308,143.83685 L213.716308,143.907862 C213.716308,145.38767 212.336308,146.285633 210.049385,146.285633 C207.146308,146.285633 204.748615,145.099038 202.461692,143.222936 L199.159385,147.151527 C202.207846,149.854581 206.091692,151.187783 209.943231,151.187783 C215.419385,151.187783 219.270923,148.377064 219.270923,143.367251" id="Fill-15" fill="#DD1829" sketch:type="MSShapeGroup" mask="url(#mask-4)"></path>
                    <path d="M237.285692,150.828368 L237.285692,130.718102 L245.018769,130.718102 L245.018769,125.598334 L223.961077,125.598334 L223.961077,130.718102 L231.694154,130.718102 L231.694154,150.828368 L237.285692,150.828368 Z" id="Fill-16" fill="#DD1829" sketch:type="MSShapeGroup" mask="url(#mask-4)"></path>
                    <path d="M270.834923,145.892087 L257.037231,145.892087 L257.037231,140.593643 L269.018769,140.593643 L269.018769,135.654842 L257.037231,135.654842 L257.037231,130.539655 L270.650308,130.539655 L270.650308,125.598563 L251.482615,125.598563 L251.482615,150.828597 L270.834923,150.828597 L270.834923,145.892087 Z" id="Fill-17" fill="#DD1829" sketch:type="MSShapeGroup" mask="url(#mask-4)"></path>
                    <path d="M283.579154,130.609064 L289.133769,130.609064 C291.856846,130.609064 293.527615,131.834601 293.527615,134.214663 L293.527615,134.285676 C293.527615,136.413758 291.965308,137.852333 289.244538,137.852333 L283.579154,137.852333 L283.579154,130.609064 Z M283.579154,142.754482 L287.896846,142.754482 L287.973,142.754482 L293.416846,150.829285 L299.954538,150.829285 L293.744538,141.815286 C296.975308,140.630981 299.193,138.069952 299.193,133.999335 L299.193,133.923742 C299.193,131.548261 298.429154,129.564494 297.012231,128.16028 C295.343769,126.499505 292.837615,125.599251 289.604538,125.599251 L277.987615,125.599251 L277.987615,150.829285 L283.579154,150.829285 L283.579154,142.754482 Z" id="Fill-18" fill="#DD1829" sketch:type="MSShapeGroup" mask="url(#mask-4)"></path>
                </g>
            </g>
        </g>
    </g>
</svg>